<svg width="512" height="512" viewBox="0 0 512 512" fill="none" xmlns="http://www.w3.org/2000/svg">
<g clip-path="url(#clip0)">
<path fill-rule="evenodd" clip-rule="evenodd" d="M319.382 469.335H422.396L432.265 477.559C441.176 484.983 454.277 484.39 462.477 476.19C471.858 466.807 471.088 451.379 460.82 442.978L391.282 386.084L441.72 370.952C455.452 366.833 461.293 350.613 453.34 338.683L426.663 298.668V170.667C426.663 99.9755 369.357 42.6685 298.665 42.6685H213.334C149.909 42.6682 97.2576 88.7969 87.1006 149.335H217.596C253.441 149.335 271.361 149.335 285.052 156.311C297.095 162.447 306.885 172.237 313.02 184.28C313.11 184.456 313.2 184.632 313.287 184.809L358.48 175.771C371.681 173.13 383.996 183.227 383.996 196.69V238.511C383.996 248.68 376.818 257.435 366.846 259.43L319.996 268.8V407.468L340.702 401.256L371.196 426.668H319.996V430.935C319.996 446.88 319.996 459.279 319.382 469.335ZM191.997 106.667C191.997 94.885 201.548 85.3338 213.33 85.3338H298.663C310.445 85.3338 319.996 94.885 319.996 106.667C319.996 118.449 310.445 128.001 298.663 128.001H213.33C201.548 128.001 191.997 118.449 191.997 106.667ZM341.33 320C341.33 308.219 350.881 298.666 362.663 298.666H383.996C395.779 298.666 405.33 308.219 405.33 320C405.33 331.782 395.779 341.333 383.996 341.333H362.663C350.881 341.333 341.33 331.782 341.33 320Z" fill="white"/>
<path fill-rule="evenodd" clip-rule="evenodd" d="M42.6667 170.668C19.1025 170.668 0 189.771 0 213.335V469.335C0 492.9 19.1025 512.002 42.6667 512.002H256C279.565 512.002 298.667 492.9 298.667 469.335V213.335C298.667 189.771 279.565 170.668 256 170.668H42.6667ZM149.333 213.335C137.551 213.335 128 222.886 128 234.668V298.668L21.3333 362.668V384.002L128 362.668V394.668L132.572 416.002H132.267L85.3333 458.668V469.335L141.977 459.895L144 469.335H154.667L156.69 459.895L213.333 469.335V458.668L166.4 416.002H166.095L170.667 394.668V362.668L277.333 384.002V362.668L170.667 298.668V234.668C170.667 222.886 161.115 213.335 149.333 213.335Z" fill="white"/>
</g>
<defs>
<clipPath id="clip0">
<rect width="512" height="512" fill="white"/>
</clipPath>
</defs>
</svg>
