<svg width="512" height="512" viewBox="0 0 512 512" fill="none" xmlns="http://www.w3.org/2000/svg">
<path fill-rule="evenodd" clip-rule="evenodd" d="M416 352L405.333 320H213.333V298.667H277.333H298.666H316.524C323.611 298.667 328.729 291.883 326.782 285.069L322.596 270.417C321.877 267.9 321.011 265.455 320.012 263.089L362.666 192H448C459.782 192 469.333 182.449 469.333 170.667C469.333 158.885 459.782 149.333 448 149.333H362.666L298.666 42.6668H277.333L298.666 149.333H234.666L213.333 128H192L202.666 170.667H149.333V64.0002C149.333 40.436 168.436 21.3335 192 21.3335H448C471.564 21.3335 490.666 40.436 490.666 64.0002V277.333C490.666 300.898 471.564 320 448 320L437.333 352L448 384V458.667C448 470.449 438.449 480 426.666 480C414.884 480 405.333 470.449 405.333 458.667V384L416 352ZM290.801 231.328L298.666 192H234.666L213.333 213.333V224H261.058C271.688 224 281.839 226.622 290.801 231.328Z" fill="white"/>
<path fill-rule="evenodd" clip-rule="evenodd" d="M272.881 192C281.549 192 289.965 193.305 297.918 195.745L290.801 231.328C281.839 226.622 271.689 224 261.058 224H186.942C158.367 224 133.255 242.942 125.405 270.417L121.218 285.069C119.272 291.883 124.388 298.667 131.475 298.667H277.334H298.667H316.525C323.612 298.667 328.73 291.883 326.782 285.069L322.597 270.417C321.878 267.9 321.012 265.455 320.013 263.089L341.726 226.901C348.544 236.203 353.556 246.995 356.184 258.822L362.667 288L382.309 281.453C389.4 279.089 397.15 282.3 400.493 288.983C403.384 294.767 402.251 301.749 397.679 306.321L384 320C395.783 320 405.334 329.551 405.334 341.333V392.149C405.334 406.767 397.076 420.13 384 426.667V448C384 465.673 369.673 480 352 480C334.328 480 320 465.673 320 448V426.667H128V448C128 465.673 113.674 480 96.0003 480C78.3272 480 64.0003 465.673 64.0003 448V426.667C50.9258 420.13 42.667 406.767 42.667 392.149V341.333C42.667 329.551 52.2184 320 64.0003 320L50.3216 306.321C45.7503 301.749 44.6171 294.767 47.5082 288.983C50.8509 282.3 58.6006 279.089 65.6914 281.453L85.3337 288L91.8177 258.822C100.494 219.778 135.123 192 175.119 192H197.334L192 213.333H213.334L234.667 192H272.881ZM117.334 384H160C171.782 384 181.334 374.449 181.334 362.667C181.334 350.884 171.782 341.333 160 341.333H117.334C105.552 341.333 96.0003 350.884 96.0003 362.667C96.0003 374.449 105.552 384 117.334 384ZM330.667 384H288C276.218 384 266.667 374.449 266.667 362.667C266.667 350.884 276.218 341.333 288 341.333H330.667C342.449 341.333 352 350.884 352 362.667C352 374.449 342.449 384 330.667 384Z" fill="white"/>
</svg>
