<svg width="512" height="512" viewBox="0 0 512 512" fill="none" xmlns="http://www.w3.org/2000/svg">
<path fill-rule="evenodd" clip-rule="evenodd" d="M64 192V234.667C64 246.449 73.5514 256 85.3333 256H106.667V170.667H85.3333C73.5514 170.667 64 180.218 64 192ZM448 234.667V192C448 180.218 438.449 170.667 426.667 170.667H405.333V256H426.667C438.449 256 448 246.449 448 234.667ZM181.333 442.667V426.667H330.667V442.667C330.667 463.285 347.381 480 368 480C388.619 480 405.333 463.285 405.333 442.667V405.333H106.667V442.667C106.667 463.285 123.381 480 144 480C164.619 480 181.333 463.285 181.333 442.667Z" fill="white"/>
<path fill-rule="evenodd" clip-rule="evenodd" d="M341.333 42.6665H170.666C123.538 42.6665 85.333 80.8715 85.333 128V400C85.333 411.782 94.8844 421.333 106.666 421.333H405.333C417.115 421.333 426.666 411.782 426.666 400V128C426.666 80.8715 388.46 42.6665 341.333 42.6665ZM170.666 106.667C158.884 106.667 149.333 116.218 149.333 128C149.333 139.782 158.884 149.333 170.666 149.333H341.333C353.115 149.333 362.666 139.782 362.666 128C362.666 116.218 353.115 106.667 341.333 106.667H170.666ZM128 192C128 180.218 137.551 170.667 149.333 170.667H362.666C374.449 170.667 384 180.218 384 192V277.333C384 289.116 374.449 298.667 362.666 298.667H149.333C137.551 298.667 128 289.116 128 277.333V192ZM128 362.667C128 350.884 137.551 341.333 149.333 341.333H192C203.782 341.333 213.333 350.884 213.333 362.667C213.333 374.449 203.782 384 192 384H149.333C137.551 384 128 374.449 128 362.667ZM298.666 362.667C298.666 350.884 308.217 341.333 320 341.333H362.666C374.449 341.333 384 350.884 384 362.667C384 374.449 374.449 384 362.666 384H320C308.217 384 298.666 374.449 298.666 362.667Z" fill="white"/>
</svg>
