<svg width="512" height="512" viewBox="0 0 512 512" fill="none" xmlns="http://www.w3.org/2000/svg">
<path fill-rule="evenodd" clip-rule="evenodd" d="M85.3333 426.666V448C85.3333 465.672 99.6602 480 117.333 480C135.007 480 149.333 465.672 149.333 448V426.666H362.667V448C362.667 465.672 376.994 480 394.667 480C412.339 480 426.667 465.672 426.667 448V426.666C439.742 420.13 448 406.767 448 392.149V320C448 308.217 438.449 298.666 426.667 298.666L440.346 284.988C444.917 280.416 446.05 273.433 443.159 267.65C439.817 260.966 432.066 257.756 424.975 260.119L405.333 266.666L398.85 237.489C390.174 198.445 355.543 170.667 315.548 170.667H196.452C156.456 170.667 121.827 198.445 113.151 237.489L106.667 266.666L87.0244 260.119C79.9337 257.756 72.1839 260.966 68.8412 267.65C65.9501 273.433 67.0833 280.416 71.6546 284.988L85.3333 298.666C73.5514 298.666 64 308.217 64 320V392.149C64 406.767 72.2588 420.13 85.3333 426.666ZM360.036 298.666H151.964C145.14 298.666 140.071 292.348 141.551 285.685L148.863 252.783C155.37 223.501 181.342 202.667 211.339 202.667H300.661C330.658 202.667 356.629 223.501 363.136 252.783L370.449 285.685C371.93 292.348 366.861 298.666 360.036 298.666ZM181.333 384H138.667C126.885 384 117.333 374.449 117.333 362.666C117.333 350.884 126.885 341.333 138.667 341.333H181.333C193.115 341.333 202.667 350.884 202.667 362.666C202.667 374.449 193.115 384 181.333 384ZM330.667 384H373.333C385.116 384 394.667 374.449 394.667 362.666C394.667 350.884 385.116 341.333 373.333 341.333H330.667C318.884 341.333 309.333 350.884 309.333 362.666C309.333 374.449 318.884 384 330.667 384Z" fill="white"/>
<path fill-rule="evenodd" clip-rule="evenodd" d="M181.333 149.333H106.667C83.1025 149.333 64 130.231 64 106.667V85.3332C64 61.769 83.1025 42.6665 106.667 42.6665H181.333C199.007 42.6665 213.333 56.9933 213.333 74.6665H416C427.782 74.6665 437.333 84.2179 437.333 95.9998C437.333 107.782 427.782 117.333 416 117.333H213.333C213.333 135.006 199.007 149.333 181.333 149.333ZM117.333 128C111.442 128 106.667 123.224 106.667 117.333V74.6665C106.667 68.7755 111.442 63.9998 117.333 63.9998C123.224 63.9998 128 68.7755 128 74.6665V117.333C128 123.224 123.224 128 117.333 128Z" fill="white"/>
</svg>
