<svg width="512" height="512" viewBox="0 0 512 512" fill="none" xmlns="http://www.w3.org/2000/svg">
<path fill-rule="evenodd" clip-rule="evenodd" d="M114.521 181.305L214.113 268.945L388.882 48.185C403.508 29.7097 430.343 26.5894 448.818 41.2158C467.292 55.8421 470.413 82.6763 455.787 101.152L253.12 357.152C237.952 376.311 209.825 378.841 191.481 362.698L58.1474 245.365C40.4574 229.798 38.7367 202.838 54.3038 185.148C69.8709 167.458 96.8312 165.737 114.521 181.305ZM101.698 404.518L146.395 351.441L177.387 378.713C190.105 389.905 205.957 395.112 221.577 394.641L166.97 459.486C151.792 477.51 124.876 479.816 106.851 464.638C88.8267 449.459 86.5195 422.543 101.698 404.518ZM269.846 370.393C260.197 382.581 247.051 390.282 233.012 393.265L333.161 466.451C352.186 480.354 378.88 476.2 392.783 457.175C406.686 438.15 402.533 411.456 383.508 397.553L297.882 334.98L269.846 370.393Z" fill="white"/>
<path fill-rule="evenodd" clip-rule="evenodd" d="M150.333 128C150.333 170.667 214.333 213.333 214.333 213.333C214.333 213.333 278.333 170.667 278.333 128C278.333 85.3333 246.333 64 214.333 64C182.333 64 150.333 85.3333 150.333 128ZM235.666 128C235.666 139.782 226.115 149.333 214.333 149.333C202.551 149.333 193 139.782 193 128C193 116.218 202.551 106.667 214.333 106.667C226.115 106.667 235.666 116.218 235.666 128Z" fill="white"/>
</svg>
