<svg width="512" height="512" viewBox="0 0 512 512" fill="none" xmlns="http://www.w3.org/2000/svg">
<path fill-rule="evenodd" clip-rule="evenodd" d="M63.9993 192C52.2174 192 42.666 201.551 42.666 213.333V458.667C42.666 464.557 47.4417 469.333 53.3327 469.333H95.734C95.8805 469.333 95.9994 469.214 95.9994 469.069V448C95.9994 430.327 110.326 416 127.999 416C145.673 416 159.999 430.327 159.999 448V469.069C159.999 469.214 160.118 469.333 160.265 469.333H309.333C315.223 469.333 319.999 464.557 319.999 458.667V320C319.999 308.217 310.448 298.667 298.666 298.667H213.333V213.333C213.333 201.551 203.781 192 191.999 192L187.229 182.459C183.615 175.232 176.228 170.667 168.148 170.667H87.8507C79.7702 170.667 72.3833 175.232 68.7697 182.459L63.9993 192ZM63.9993 288C63.9993 282.11 68.775 277.333 74.666 277.333H95.9994C101.89 277.333 106.666 282.11 106.666 288V309.333C106.666 315.223 101.89 320 95.9994 320H74.666C68.775 320 63.9993 315.223 63.9993 309.333V288ZM159.999 277.333C154.108 277.333 149.333 282.11 149.333 288V309.333C149.333 315.223 154.108 320 159.999 320H181.333C187.224 320 191.999 315.223 191.999 309.333V288C191.999 282.11 187.224 277.333 181.333 277.333H159.999ZM63.9993 352C63.9993 346.11 68.775 341.333 74.666 341.333H95.9994C101.89 341.333 106.666 346.11 106.666 352V373.333C106.666 379.223 101.89 384 95.9994 384H74.666C68.775 384 63.9993 379.223 63.9993 373.333V352ZM159.999 341.333C154.108 341.333 149.333 346.11 149.333 352V373.333C149.333 379.223 154.108 384 159.999 384H181.333C187.224 384 191.999 379.223 191.999 373.333V352C191.999 346.11 187.224 341.333 181.333 341.333H159.999ZM63.9993 224C63.9993 218.11 68.775 213.333 74.666 213.333H95.9994C101.89 213.333 106.666 218.11 106.666 224V245.333C106.666 251.223 101.89 256 95.9994 256H74.666C68.775 256 63.9993 251.223 63.9993 245.333V224ZM159.999 213.333C154.108 213.333 149.333 218.11 149.333 224V245.333C149.333 251.223 154.108 256 159.999 256H181.333C187.224 256 191.999 251.223 191.999 245.333V224C191.999 218.11 187.224 213.333 181.333 213.333H159.999ZM234.666 330.667C234.666 324.776 239.443 320 245.333 320H287.999C293.889 320 298.666 324.776 298.666 330.667V352C298.666 357.89 293.889 362.667 287.999 362.667H245.333C239.443 362.667 234.666 357.89 234.666 352V330.667ZM245.333 384C239.443 384 234.666 388.776 234.666 394.667V416C234.666 421.89 239.443 426.667 245.333 426.667H287.999C293.889 426.667 298.666 421.89 298.666 416V394.667C298.666 388.776 293.889 384 287.999 384H245.333Z" fill="#0194F3"/>
<path fill-rule="evenodd" clip-rule="evenodd" d="M429.516 48.5017C438.726 39.2911 453.659 39.2911 462.871 48.5017C472.083 57.7126 472.083 72.6462 462.871 81.8571L412.832 131.897L446.184 307.976L429.506 324.654L362.799 181.929L337.79 206.939L317.536 220.044L317.772 220.283L321.109 290.327L312.77 298.666L275.87 247.005L266.91 252.801L258.57 244.464L264.369 235.504L212.705 198.601L221.043 190.262L291.089 193.598L291.33 193.837L304.435 173.584L329.446 148.572L329.442 148.567L186.709 81.8562L203.387 65.1787L379.475 98.5337L379.479 98.5389L429.516 48.5017Z" fill="#0194F3"/>
</svg>
