<svg width="512" height="512" viewBox="0 0 512 512" fill="none" xmlns="http://www.w3.org/2000/svg">
<path fill-rule="evenodd" clip-rule="evenodd" d="M277.334 415.998H106.667C79.5062 415.998 55.7326 401.496 42.667 379.812V394.665C42.667 435.902 76.0963 469.331 117.334 469.331H394.667C435.904 469.331 469.334 435.902 469.334 394.665V379.812C456.269 401.496 432.495 415.998 405.334 415.998H320V469.331H277.334V415.998Z" fill="#0194F3"/>
<path fill-rule="evenodd" clip-rule="evenodd" d="M117.334 42.6665C76.0963 42.6665 42.667 76.0958 42.667 117.333V213.333H199.343C194.642 204.976 192 195.373 192 185.273V182.295C192 152.309 216.31 128 246.296 128C257.611 128 268.393 131.517 277.334 137.746V42.6665H117.334ZM397.991 213.333C402.693 204.976 405.334 195.373 405.334 185.273V182.295C405.334 152.309 381.024 128 351.038 128C339.723 128 328.941 131.517 320 137.746V42.6665H394.667C435.904 42.6665 469.334 76.0958 469.334 117.333V213.333H397.991ZM320 280.213L349.009 304.388C358.061 311.932 371.514 310.709 379.055 301.657C386.599 292.606 385.376 279.153 376.325 271.612L357.59 256H469.334V320C469.334 355.347 440.681 384 405.334 384H320V280.213ZM239.742 256L221.009 271.612C211.959 279.153 210.735 292.606 218.279 301.657C225.82 310.709 239.273 311.932 248.325 304.388L277.334 280.213V384H106.667C71.3209 384 42.667 355.347 42.667 320V256H239.742ZM234.667 182.295C234.667 175.873 239.872 170.667 246.296 170.667C250.699 170.667 254.727 173.155 256.696 177.095L271.034 205.768L245.73 199.442C239.228 197.817 234.667 191.975 234.667 185.273V182.295ZM351.604 199.443L326.3 205.768L340.638 177.095C342.607 173.155 346.635 170.667 351.038 170.667C357.462 170.667 362.667 175.873 362.667 182.295V185.273C362.667 191.975 358.106 197.817 351.604 199.443Z" fill="white"/>
</svg>
