<svg width="512" height="512" viewBox="0 0 512 512" fill="none" xmlns="http://www.w3.org/2000/svg">
<path d="M255.979 503.176C156.005 503.176 80.625 471.342 80.625 429.122C80.625 408.23 99.1387 389.233 132.765 375.611C133.934 375.138 135.185 374.899 136.446 374.909C137.707 374.92 138.954 375.178 140.116 375.671C141.277 376.162 142.331 376.878 143.215 377.777C144.1 378.677 144.799 379.741 145.273 380.91C145.746 382.08 145.985 383.33 145.974 384.59C145.964 385.853 145.706 387.099 145.214 388.262C144.722 389.422 144.006 390.476 143.107 391.362C142.208 392.245 141.144 392.945 139.974 393.418C114.853 403.609 99.8461 416.945 99.8461 429.122C99.8461 455.054 163.967 483.955 255.979 483.955C347.99 483.955 412.097 455.054 412.097 429.122C412.097 416.945 397.044 403.609 371.954 393.418C370.785 392.945 369.72 392.243 368.822 391.357C367.922 390.472 367.207 389.418 366.716 388.256C365.724 385.909 365.705 383.264 366.663 380.902C367.621 378.54 369.477 376.657 371.823 375.665C374.172 374.673 376.818 374.653 379.177 375.611C412.805 389.233 431.318 408.23 431.318 429.122C431.378 471.342 355.939 503.176 255.979 503.176Z" fill="#0194F3"/>
<path fill-rule="evenodd" clip-rule="evenodd" d="M255.979 426.661C254.243 426.651 252.542 426.143 251.079 425.196C210.877 398.896 172.76 369.473 137.073 337.194C60.2375 267.073 21.3125 203.427 21.3125 148.003C21.3125 65.717 81.5484 21.3281 138.218 21.3281C198.57 21.3281 235.958 59.2837 255.979 89.0179C276.001 59.2837 313.387 21.3281 373.726 21.3281C430.409 21.3281 490.646 65.717 490.646 148.003C490.646 178.441 478.614 211.868 454.868 247.361C454.535 247.946 430.782 286.397 402.906 310.258C339.286 375.444 264.342 423.035 260.922 425.181C259.448 426.139 257.733 426.653 255.979 426.661ZM229.95 208.588V156.81C229.957 155.815 230.159 154.831 230.548 153.916C230.936 153 231.501 152.17 232.214 151.474C232.924 150.779 233.767 150.231 234.691 149.863C235.614 149.495 236.602 149.313 237.596 149.329H276.732C278.727 149.329 280.643 150.122 282.053 151.533C283.465 152.945 284.257 154.859 284.257 156.855V208.633H335.99C336.986 208.633 337.97 208.83 338.889 209.213C339.806 209.596 340.638 210.157 341.338 210.864C342.038 211.571 342.592 212.41 342.966 213.332C343.339 214.254 343.527 215.24 343.516 216.234V255.37C343.527 256.364 343.339 257.352 342.966 258.273C342.592 259.195 342.038 260.033 341.338 260.739C340.638 261.448 339.806 262.009 338.889 262.391C337.97 262.772 336.986 262.971 335.99 262.971H284.212V314.704C284.212 316.699 283.42 318.615 282.008 320.025C280.596 321.437 278.682 322.231 276.685 322.231H237.551C236.557 322.239 235.57 322.051 234.648 321.678C233.726 321.305 232.888 320.752 232.182 320.052C231.474 319.353 230.913 318.519 230.531 317.601C230.147 316.684 229.95 315.698 229.95 314.704V262.926H178.172C177.177 262.926 176.193 262.728 175.275 262.346C174.357 261.962 173.523 261.401 172.824 260.695C172.124 259.988 171.571 259.15 171.197 258.228C170.824 257.305 170.636 256.319 170.646 255.325V216.189C170.636 215.195 170.824 214.207 171.197 213.286C171.571 212.365 172.124 211.526 172.824 210.819C173.523 210.112 174.357 209.551 175.275 209.168C176.193 208.785 177.177 208.588 178.172 208.588H229.95Z" fill="#0194F3"/>
</svg>
