<svg width="512" height="512" viewBox="0 0 512 512" fill="none" xmlns="http://www.w3.org/2000/svg">
<path fill-rule="evenodd" clip-rule="evenodd" d="M42.667 85.3333V448C42.667 459.782 52.2184 469.333 64.0003 469.333H138.667V442.667C138.667 433.83 131.503 426.667 122.667 426.667C113.831 426.667 106.667 419.503 106.667 410.667V405.333C106.667 393.551 116.218 384 128 384H234.667C246.449 384 256 393.551 256 405.333V410.667C256 419.503 248.837 426.667 240 426.667C231.164 426.667 224 433.83 224 442.667V469.333H298.667H320H448C459.783 469.333 469.334 459.782 469.334 448V256C469.334 232.435 450.232 213.333 426.667 213.333H320V85.3333C320 73.5513 310.449 63.9999 298.667 63.9999H266.667C260.397 38.9245 237.867 21.3333 212.021 21.3333H150.647C124.799 21.3333 102.269 38.9245 96.0003 63.9999H64.0003C52.2184 63.9999 42.667 73.5511 42.667 85.3333ZM85.3337 128C85.3337 116.218 94.885 106.667 106.667 106.667H149.334C161.116 106.667 170.667 116.218 170.667 128V149.333C170.667 161.115 161.116 170.667 149.334 170.667H106.667C94.885 170.667 85.3337 161.115 85.3337 149.333V128ZM213.334 106.667C201.552 106.667 192 116.218 192 128V149.333C192 161.115 201.552 170.667 213.334 170.667H256C267.783 170.667 277.334 161.115 277.334 149.333V128C277.334 116.218 267.783 106.667 256 106.667H213.334ZM192 213.333C192 201.551 201.552 192 213.334 192H256C267.783 192 277.334 201.551 277.334 213.333V234.667C277.334 246.449 267.783 256 256 256H213.334C201.552 256 192 246.449 192 234.667V213.333ZM85.3337 213.333C85.3337 201.551 94.885 192 106.667 192H149.334C161.116 192 170.667 201.551 170.667 213.333V234.667C170.667 246.449 161.116 256 149.334 256H106.667C94.885 256 85.3337 246.449 85.3337 234.667V213.333ZM106.667 277.333C94.885 277.333 85.3337 286.884 85.3337 298.667V320C85.3337 331.782 94.885 341.333 106.667 341.333H149.334C161.116 341.333 170.667 331.782 170.667 320V298.667C170.667 286.884 161.116 277.333 149.334 277.333H106.667ZM213.334 277.333C201.552 277.333 192 286.884 192 298.667V320C192 331.782 201.552 341.333 213.334 341.333H256C267.783 341.333 277.334 331.782 277.334 320V298.667C277.334 286.884 267.783 277.333 256 277.333H213.334ZM341.334 298.667V277.333C341.334 265.551 350.885 256 362.667 256H405.334C417.116 256 426.667 265.551 426.667 277.333V298.667C426.667 310.449 417.116 320 405.334 320H362.667C350.885 320 341.334 310.449 341.334 298.667ZM405.334 341.333H362.667C350.885 341.333 341.334 350.884 341.334 362.667V384C341.334 395.782 350.885 405.333 362.667 405.333H405.334C417.116 405.333 426.667 395.782 426.667 384V362.667C426.667 350.884 417.116 341.333 405.334 341.333Z" fill="white"/>
<path d="M341.333 149.333V64.0001C341.333 52.2181 350.884 42.6667 362.666 42.6667C374.449 42.6667 384 52.2181 384 64.0001V85.3334H426.666V64.0001C426.666 52.2181 436.217 42.6667 448 42.6667C459.782 42.6667 469.333 52.2181 469.333 64.0001V149.333C469.333 161.115 459.782 170.667 448 170.667C436.217 170.667 426.666 161.115 426.666 149.333V128H384V149.333C384 161.115 374.449 170.667 362.666 170.667C350.884 170.667 341.333 161.115 341.333 149.333Z" fill="white"/>
</svg>
