<svg width="512" height="512" viewBox="0 0 512 512" fill="none" xmlns="http://www.w3.org/2000/svg">
<path fill-rule="evenodd" clip-rule="evenodd" d="M224 416C330.038 416 416 330.038 416 224C416 117.961 330.038 32 224 32C117.961 32 32 117.961 32 224C32 330.038 117.961 416 224 416ZM184 176C184 171.582 187.582 168 192 168H256C260.418 168 264 171.582 264 176V240C264 244.418 260.418 248 256 248H240C226.745 248 216 258.745 216 272C216 285.255 226.745 296 240 296H256C286.928 296 312 270.928 312 240V176C312 145.072 286.928 120 256 120H192C161.072 120 136 145.072 136 176V320C136 333.254 146.745 344 160 344C173.255 344 184 333.254 184 320V176Z" fill="#0194F3"/>
<path fill-rule="evenodd" clip-rule="evenodd" d="M239.991 447.999C354.866 447.999 447.992 354.876 447.992 240C447.992 212.421 442.623 186.095 432.876 162.01C462.223 195.729 479.992 239.79 479.992 288C479.992 394.038 394.031 479.999 287.991 479.999C239.78 479.999 195.719 462.23 162 432.886C186.085 442.633 212.411 447.999 239.991 447.999Z" fill="#0194F3"/>
</svg>
