<svg width="512" height="512" viewBox="0 0 512 512" fill="none" xmlns="http://www.w3.org/2000/svg">
<path d="M96.3985 50C69.3201 50 47.293 72.0286 47.293 99.1055C47.293 126.182 69.3109 148.21 96.3985 148.21C123.486 148.21 145.504 126.182 145.504 99.1055C145.504 72.0286 123.475 50 96.3985 50Z" fill="black"/>
<path d="M255.328 50C228.251 50 206.223 72.0286 206.223 99.1055C206.223 126.182 228.251 148.21 255.328 148.21C282.407 148.21 304.438 126.182 304.438 99.1055C304.438 72.0286 282.416 50 255.328 50Z" fill="black"/>
<path d="M416.826 148.211C443.899 148.211 465.932 126.184 465.932 99.107C465.932 72.0301 443.917 50 416.826 50C389.736 50 367.721 72.0286 367.721 99.1055C367.721 126.182 389.752 148.211 416.826 148.211Z" fill="black"/>
<path d="M95.1146 305.56C122.192 305.56 144.225 283.538 144.225 256.456C144.225 229.373 122.192 207.346 95.1146 207.346C68.0377 207.346 46 229.375 46 256.456C46 283.538 68.0377 305.56 95.1146 305.56Z" fill="black"/>
<path d="M254.045 305.56C281.117 305.56 303.15 283.538 303.15 256.456C303.15 229.373 281.136 207.346 254.045 207.346C226.959 207.346 204.939 229.373 204.939 256.456C204.939 283.538 226.968 305.56 254.045 305.56Z" fill="black"/>
<path d="M415.559 305.56C442.642 305.56 464.665 283.538 464.665 256.456C464.665 229.373 442.642 207.346 415.559 207.346C388.476 207.346 366.436 229.373 366.436 256.456C366.436 283.538 388.469 305.56 415.559 305.56Z" fill="black"/>
<path d="M96.2377 364.208C69.1608 364.208 47.123 386.23 47.123 413.313C47.123 440.385 69.1608 462.417 96.2377 462.417C123.315 462.417 145.342 440.396 145.342 413.313C145.342 386.23 123.315 364.208 96.2377 364.208Z" fill="black"/>
<path d="M255.177 364.208C228.099 364.208 206.062 386.23 206.062 413.313C206.062 440.385 228.091 462.417 255.177 462.417C282.249 462.417 304.281 440.396 304.281 413.313C304.281 386.23 282.249 364.208 255.177 364.208Z" fill="black"/>
<path d="M416.674 364.208C389.602 364.208 367.568 386.23 367.568 413.313C367.568 440.385 389.602 462.417 416.674 462.417C443.757 462.417 465.779 440.396 465.779 413.313C465.779 386.23 443.746 364.208 416.674 364.208Z" fill="black"/>
</svg>
