<svg width="512" height="512" viewBox="0 0 512 512" fill="none" xmlns="http://www.w3.org/2000/svg">
<path fill-rule="evenodd" clip-rule="evenodd" d="M95.9792 224C107.761 224 117.312 233.551 117.312 245.333V256H202.646V245.333C202.646 233.551 212.197 224 223.979 224C235.762 224 245.312 233.551 245.312 245.333V256H255.979C279.544 256 298.646 275.102 298.646 298.667V448C298.646 471.565 279.544 490.667 255.979 490.667H63.9792C40.415 490.667 21.3125 471.565 21.3125 448V298.667C21.3125 275.102 40.415 256 63.9792 256H74.6458V245.333C74.6458 233.551 84.1972 224 95.9792 224ZM136.083 349.44C136.083 337.658 145.635 328.107 157.417 328.107H162.75C174.532 328.107 184.083 337.658 184.083 349.44V354.773C184.083 366.556 174.532 376.107 162.75 376.107H157.417C145.635 376.107 136.083 366.556 136.083 354.773V349.44ZM74.6458 349.44C74.6458 337.658 84.1972 328.107 95.9792 328.107H101.312C113.094 328.107 122.646 337.658 122.646 349.44V354.773C122.646 366.556 113.094 376.107 101.312 376.107H95.9792C84.1972 376.107 74.6458 366.556 74.6458 354.773V349.44ZM197.312 349.44C197.312 337.658 206.864 328.107 218.646 328.107H223.979C235.762 328.107 245.312 337.658 245.312 349.44V354.773C245.312 366.556 235.762 376.107 223.979 376.107H218.646C206.864 376.107 197.312 366.556 197.312 354.773V349.44ZM136.083 413.44C136.083 401.658 145.635 392.107 157.417 392.107H162.75C174.532 392.107 184.083 401.658 184.083 413.44V418.773C184.083 430.556 174.532 440.107 162.75 440.107H157.417C145.635 440.107 136.083 430.556 136.083 418.773V413.44ZM74.6458 413.44C74.6458 401.658 84.1972 392.107 95.9792 392.107H101.312C113.094 392.107 122.646 401.658 122.646 413.44V418.773C122.646 430.556 113.094 440.107 101.312 440.107H95.9792C84.1972 440.107 74.6458 430.556 74.6458 418.773V413.44ZM197.312 413.44C197.312 401.658 206.864 392.107 218.646 392.107H223.979C235.762 392.107 245.312 401.658 245.312 413.44V418.773C245.312 430.556 235.762 440.107 223.979 440.107H218.646C206.864 440.107 197.312 430.556 197.312 418.773V413.44Z" fill="#0194F3"/>
<path d="M362.688 266.661C362.688 254.879 372.238 245.328 384.021 245.328H469.354V287.995H384.021C372.238 287.995 362.688 278.444 362.688 266.661Z" fill="#0194F3"/>
<path d="M64 106.672C64 71.3257 92.6539 42.6719 128 42.6719H405.333C417.116 42.6719 426.667 52.2232 426.667 64.0052V96.0052H106.667V128.005H448C459.782 128.005 469.333 137.557 469.333 149.339V213.339H384C354.545 213.339 330.667 237.217 330.667 266.672C330.667 296.127 354.545 320.005 384 320.005H469.333V362.672C469.333 386.237 450.231 405.339 426.667 405.339H320V288.005C320 258.55 296.122 234.672 266.667 234.672C266.667 216.999 252.339 202.672 234.667 202.672H213.333C195.66 202.672 181.333 216.999 181.333 234.672H138.667C138.667 216.999 124.34 202.672 106.667 202.672H64V106.672Z" fill="#0194F3"/>
</svg>
