<svg width="512" height="512" viewBox="0 0 512 512" fill="none" xmlns="http://www.w3.org/2000/svg">
<path d="M187.581 89.7485L149.333 127.997L192 170.663L230.248 132.415C238.579 124.084 238.579 110.576 230.248 102.245L217.751 89.7485C209.42 81.4172 195.913 81.4172 187.581 89.7485Z" fill="white"/>
<path d="M379.582 281.748L341.333 319.997L384 362.663L422.248 324.415C430.579 316.084 430.579 302.576 422.248 294.245L409.751 281.748C401.42 273.417 387.912 273.417 379.582 281.748Z" fill="white"/>
<path d="M298.666 149.33L60.2186 69.848C50.1469 66.4908 39.1391 71.0504 34.3912 80.546L29.7546 89.8194C24.9431 99.4425 28.0503 111.142 37.0022 117.11L213.332 234.664L277.332 298.664L394.885 474.994C400.854 483.946 412.554 487.052 422.177 482.241L431.451 477.606C440.946 472.857 445.505 461.849 442.147 451.777L362.666 213.33L298.666 149.33Z" fill="white"/>
<path d="M75.3338 313.415L127.99 319.996L191.99 383.996L198.572 436.653C200.979 455.905 190.094 474.354 172.081 481.56L167.549 483.373C157.247 487.493 145.507 483.03 140.545 473.106L106.657 405.33L38.8807 371.442C28.9569 366.48 24.4931 354.74 28.6138 344.438L30.4265 339.905C37.6318 321.893 56.0828 311.009 75.3338 313.415Z" fill="white"/>
<path d="M121.237 419.381L191.993 384.002L286.705 305.075C308.855 286.617 329.333 266.244 347.904 244.19L466.368 103.515C480.106 87.2 479.076 63.0841 463.993 48.0019C448.911 32.9197 424.795 31.888 408.48 45.6271L267.806 164.091C245.751 182.662 225.378 203.141 206.92 225.29L127.993 320.002L92.6149 390.758C83.4462 409.096 102.899 428.548 121.237 419.381Z" fill="white"/>
</svg>
