<svg width="512" height="512" viewBox="0 0 512 512" fill="none" xmlns="http://www.w3.org/2000/svg">
<path d="M198.609 134.406C190.166 130.302 180.685 128 170.666 128C135.32 128 106.666 156.654 106.666 192C106.666 227.346 135.32 256 170.666 256C200.653 256 225.823 235.377 232.767 207.54C240.81 211.295 248.366 213.333 256 213.333C256.241 213.333 256.482 213.332 256.723 213.33L173.706 351.691C167.645 361.794 170.921 374.898 181.024 380.96C191.127 387.022 204.231 383.746 210.293 373.643L338.293 160.309C352.422 136.761 318.271 114.602 302.523 137.1C286.24 160.361 270.781 170.667 256 170.667C254.544 170.667 249.478 168.595 242.634 164.328C239.143 162.152 235.355 159.538 231.047 156.367C227.353 153.648 215.807 144.77 214.464 143.767C206.915 138.13 203.106 135.489 198.609 134.406ZM256 490.667C126.397 490.667 21.333 385.603 21.333 256C21.333 126.397 126.397 21.3335 256 21.3335C385.602 21.3335 490.666 126.397 490.666 256C490.666 385.603 385.602 490.667 256 490.667ZM341.333 384C376.679 384 405.333 355.346 405.333 320C405.333 284.654 376.679 256 341.333 256C305.987 256 277.333 284.654 277.333 320C277.333 355.346 305.987 384 341.333 384ZM341.333 341.333C329.551 341.333 320 331.782 320 320C320 308.218 329.551 298.667 341.333 298.667C353.115 298.667 362.666 308.218 362.666 320C362.666 331.782 353.115 341.333 341.333 341.333ZM170.666 213.333C158.884 213.333 149.333 203.782 149.333 192C149.333 180.218 158.884 170.667 170.666 170.667C182.448 170.667 192 180.218 192 192C192 203.782 182.448 213.333 170.666 213.333Z" fill="white"/>
</svg>
