<svg width="512" height="512" viewBox="0 0 512 512" fill="none" xmlns="http://www.w3.org/2000/svg">
<path fill-rule="evenodd" clip-rule="evenodd" d="M405.334 42.6665C381.769 42.6665 362.667 61.769 362.667 85.3332V426.667C362.667 450.231 381.769 469.333 405.334 469.333C428.899 469.333 448.001 450.231 448.001 426.667V85.3332C448.001 61.769 428.899 42.6665 405.334 42.6665ZM256.001 149.333C232.436 149.333 213.334 168.436 213.334 192V426.667C213.334 450.231 232.436 469.333 256.001 469.333C279.565 469.333 298.667 450.231 298.667 426.667V192C298.667 168.436 279.565 149.333 256.001 149.333Z" fill="#0194F3"/>
<path d="M64 277.333C64 253.768 83.1025 234.667 106.667 234.667C130.231 234.667 149.333 253.768 149.333 277.333V426.667C149.333 450.231 130.231 469.333 106.667 469.333C83.1025 469.333 64 450.231 64 426.667V277.333Z" fill="#0194F3"/>
</svg>
