<svg width="512" height="512" viewBox="0 0 512 512" fill="none" xmlns="http://www.w3.org/2000/svg">
<path fill-rule="evenodd" clip-rule="evenodd" d="M149.339 362.667L51.1823 442.976C40.9148 451.377 40.1453 466.806 49.526 476.186C57.7265 484.387 70.8273 484.982 79.7368 477.558L192.006 384L149.339 362.667Z" fill="white"/>
<path d="M85.333 426.667H426.666V469.334H85.333V426.667Z" fill="white"/>
<path fill-rule="evenodd" clip-rule="evenodd" d="M320 384L362.667 362.667L460.823 442.976C471.091 451.377 471.861 466.806 462.481 476.186C454.281 484.387 441.18 484.982 432.269 477.558L320 384Z" fill="white"/>
<path fill-rule="evenodd" clip-rule="evenodd" d="M85.3344 170.668V298.667L58.6572 338.682C50.7052 350.61 56.5463 366.829 70.2775 370.949L256 426.667L441.724 370.949C455.456 366.829 461.297 350.61 453.344 338.682L426.667 298.667V170.665C426.667 99.9736 369.361 42.6665 298.669 42.6665H213.338C142.644 42.6663 85.3344 99.9744 85.3344 170.668ZM213.333 85.3319C201.552 85.3319 192 94.883 192 106.665C192 118.447 201.552 127.999 213.333 127.999H298.667C310.449 127.999 320 118.447 320 106.665C320 94.883 310.449 85.3319 298.667 85.3319H213.333ZM106.667 319.999C106.667 308.216 116.218 298.665 128 298.665H149.334C161.116 298.665 170.667 308.216 170.667 319.999C170.667 331.781 161.116 341.332 149.334 341.332H128C116.218 341.332 106.667 331.781 106.667 319.999ZM362.667 298.665C350.884 298.665 341.333 308.216 341.333 319.999C341.333 331.781 350.884 341.332 362.667 341.332H384C395.782 341.332 405.333 331.781 405.333 319.999C405.333 308.216 395.782 298.665 384 298.665H362.667ZM128 196.688C128 183.225 140.317 173.128 153.518 175.769L217.517 188.569C227.49 190.563 234.667 199.318 234.667 209.488V251.309C234.667 264.771 222.351 274.868 209.15 272.229L145.15 259.429C135.178 257.434 128 248.679 128 238.509V196.688ZM277.333 209.488C277.333 199.318 284.512 190.563 294.483 188.569L358.483 175.769C371.684 173.128 384 183.225 384 196.688V238.509C384 248.679 376.823 257.434 366.85 259.429L302.85 272.229C289.649 274.868 277.333 264.771 277.333 251.309V209.488Z" fill="white"/>
</svg>
